<svg xmlns="http://www.w3.org/2000/svg" xmlns:xlink="http://www.w3.org/1999/xlink" width="16" height="16" viewBox="0 0 16 16">
	<defs>
		<clipPath id="clipPath3813035603">
			<path d="M0 0L16 0L16 16L0 16L0 0Z" fill-rule="nonzero" transform="matrix(1 0 0 1 0 0)"/>
		</clipPath>
	</defs>
	<g clip-path="url(#clipPath3813035603)">
		<path d="M1.28595 1.28595Q-0.666667 3.23858 -0.666667 6C-0.666667 6.36819 -0.368187 6.66667 0 6.66667C0.368187 6.66667 0.666667 6.36819 0.666667 6Q0.666667 3.79086 2.22876 2.22876Q3.79086 0.666667 6 0.666667Q7.12649 0.670909 8.17237 1.09609Q9.21826 1.52127 10.03 2.30598L11.5286 3.80474C11.7889 4.06509 12.2111 4.06509 12.4714 3.80474C12.7318 3.54439 12.7318 3.12228 12.4714 2.86193L10.9567 1.34736Q9.95945 0.383287 8.6745 -0.139079Q7.38956 -0.661444 6 -0.666667Q3.23858 -0.666667 1.28595 1.28595Z" fill-rule="evenodd" transform="matrix(1 0 0 1 2 2)" fill="rgb(9, 9, 11)"/>
		<path d="M3.33333 -0.666667C2.96515 -0.666667 2.66667 -0.368187 2.66667 0L2.66667 2.66667L0 2.66667C-0.368187 2.66667 -0.666667 2.96515 -0.666667 3.33333C-0.666667 3.70152 -0.368187 4 0 4L3.33333 4Q3.39899 4 3.46339 3.98719Q3.52779 3.97438 3.58846 3.94925Q3.64912 3.92413 3.70371 3.88765Q3.75831 3.85117 3.80474 3.80474Q3.85117 3.75831 3.88765 3.70371Q3.92413 3.64912 3.94925 3.58846Q3.97438 3.52779 3.98719 3.46339Q4 3.39899 4 3.33333L4 0C4 -0.368187 3.70152 -0.666667 3.33333 -0.666667Z" fill-rule="evenodd" transform="matrix(1 0 0 1 10.6667 2)" fill="rgb(9, 9, 11)"/>
		<path d="M12 -0.666667C11.6318 -0.666667 11.3333 -0.368187 11.3333 0Q11.3333 2.20914 9.77124 3.77124Q8.20914 5.33333 6 5.33333Q4.87351 5.32909 3.82763 4.90391Q2.78175 4.47873 1.97003 3.69402L0.471405 2.19526C0.211057 1.93491 -0.211057 1.93491 -0.471405 2.19526C-0.731752 2.45561 -0.731752 2.87772 -0.471404 3.13807L1.0433 4.65265Q2.04056 5.61671 3.3255 6.13908Q4.61044 6.66144 6 6.66667Q8.76143 6.66667 10.714 4.71405Q12.6667 2.76142 12.6667 0C12.6667 -0.368187 12.3682 -0.666667 12 -0.666667Z" fill-rule="evenodd" transform="matrix(1 0 0 1 2 8)" fill="rgb(9, 9, 11)"/>
		<path d="M0.666667 0.666667L3.33333 0.666667C3.70152 0.666667 4 0.368187 4 0C4 -0.368187 3.70152 -0.666667 3.33333 -0.666667L0 -0.666667Q-0.0656609 -0.666667 -0.13006 -0.653857Q-0.194459 -0.641047 -0.255122 -0.61592Q-0.315785 -0.590792 -0.37038 -0.554313Q-0.424975 -0.517834 -0.471404 -0.471404Q-0.517834 -0.424975 -0.554313 -0.37038Q-0.590792 -0.315785 -0.61592 -0.255122Q-0.641047 -0.194459 -0.653857 -0.13006Q-0.666667 -0.0656609 -0.666667 0L-0.666667 3.33333C-0.666667 3.70152 -0.368187 4 0 4C0.368187 4 0.666667 3.70152 0.666667 3.33333L0.666667 0.666667Z" fill-rule="evenodd" transform="matrix(1 0 0 1 2 10.6667)" fill="rgb(9, 9, 11)"/>
	</g>
</svg>
