<svg xmlns="http://www.w3.org/2000/svg" xmlns:xlink="http://www.w3.org/1999/xlink" width="24" height="24" viewBox="0 0 24 24">
	<defs>
		<clipPath id="clipPath6771844216">
			<path d="M0 0L24 0L24 24L0 24L0 0Z" fill-rule="nonzero" transform="matrix(1 0 0 1 0 0)"/>
		</clipPath>
	</defs>
	<g clip-path="url(#clipPath6771844216)">
		<path d="M0 -1C-0.55228 -1 -1 -0.55228 -1 0L-1 4Q-1 5.24264 -0.121322 6.12132Q0.757358 7 2 7L16 7Q17.2426 7 18.1213 6.12132Q19 5.24264 19 4L19 0C19 -0.55228 18.5523 -1 18 -1C17.4477 -1 17 -0.55228 17 0L17 4Q17 4.41421 16.7071 4.70711Q16.4142 5 16 5L2 5Q1.58579 5 1.29289 4.70711Q1 4.41421 1 4L1 0C1 -0.55228 0.55228 -1 0 -1Z" fill-rule="evenodd" transform="matrix(1 0 0 1 3 15)" fill="rgb(113, 113, 122)"/>
		<path d="M5 1.41421L9.29289 5.70711C9.68341 6.09763 10.3166 6.09763 10.7071 5.70711C11.0976 5.31659 11.0976 4.68341 10.7071 4.29289L5.70711 -0.707107Q5.56645 -0.847759 5.38268 -0.92388Q5.19891 -1 5 -1Q4.80109 -1 4.61732 -0.923879Q4.43355 -0.847759 4.29289 -0.707107L-0.707107 4.29289C-1.09763 4.68341 -1.09763 5.31659 -0.707107 5.70711C-0.316586 6.09763 0.316586 6.09763 0.707107 5.70711L5 1.41421Z" fill-rule="evenodd" transform="matrix(1 0 0 1 7 3)" fill="rgb(113, 113, 122)"/>
		<path d="M0 -1C-0.55228 -1 -1 -0.55228 -1 0L-1 12C-1 12.5523 -0.55228 13 0 13C0.55228 13 1 12.5523 1 12L1 0C1 -0.55228 0.55228 -1 0 -1Z" fill-rule="evenodd" transform="matrix(1 0 0 1 12 3)" fill="rgb(113, 113, 122)"/>
	</g>
</svg>
