<svg xmlns="http://www.w3.org/2000/svg" xmlns:xlink="http://www.w3.org/1999/xlink" width="16" height="16" viewBox="0 0 16 16">
	<defs>
		<clipPath id="clipPath5731287026">
			<path d="M0 0L16 0L16 16L0 16L0 0Z" fill-rule="nonzero" transform="matrix(1 0 0 1 0 0)"/>
		</clipPath>
	</defs>
	<g clip-path="url(#clipPath5731287026)">
		<path d="M-0.612763 4.40405Q-0.470403 4.07188 -0.187445 3.59651Q0.369577 2.66071 1.0948 1.8797Q2.12154 0.773983 3.34937 0.13733Q4.89994 -0.666667 6.66667 -0.666667Q8.4334 -0.666667 9.98396 0.13733Q11.2118 0.773984 12.2385 1.8797Q12.9638 2.66071 13.5208 3.59651Q13.8037 4.07189 13.9461 4.40405Q14 4.52983 14 4.66667Q14 4.80351 13.9461 4.92928Q13.8037 5.26145 13.5208 5.73682Q12.9638 6.67262 12.2385 7.45363Q11.2118 8.55935 9.98396 9.196Q8.4334 10 6.66667 10Q4.89994 10 3.34937 9.196Q2.12154 8.55935 1.0948 7.45363Q0.369577 6.67262 -0.187445 5.73682Q-0.470405 5.26145 -0.612763 4.92928Q-0.666667 4.80351 -0.666667 4.66667Q-0.666667 4.52983 -0.612763 4.40405ZM0.612763 4.92928L0 4.66667L0.612763 4.40405Q0.720402 4.65521 0.958279 5.05484Q1.44292 5.86905 2.07186 6.54637Q4.04071 8.66667 6.66667 8.66667Q9.29262 8.66667 11.2615 6.54637Q11.8904 5.86905 12.3751 5.05484Q12.6129 4.65522 12.7206 4.40405L13.3333 4.66667L12.7206 4.92928Q12.6129 4.67812 12.3751 4.27849Q11.8904 3.46429 11.2615 2.78697Q9.29262 0.666667 6.66667 0.666667Q4.04071 0.666667 2.07186 2.78697Q1.44292 3.46429 0.958279 4.27849Q0.720403 4.67812 0.612763 4.92928Z" fill-rule="nonzero" transform="matrix(1 0 0 1 1.33333 3.33333)" fill="rgb(107, 114, 128)"/>
		<circle cx="2" cy="2" r="2" stroke-width="1.3333334" transform="matrix(1 0 0 1 6 6)" stroke="rgb(107, 114, 128)" fill="transparent"/>
	</g>
</svg>
